# xmcd
#
# Track frame offsets: 
#        150
#        23235
#        45900
#        65941
#        87074
#        105912
#        124554
#        147061
#        166475
#        190379
#        210542
#        235208
#        250782
#
# Disc length: 3626 seconds
#
# Revision: 2
# Processed by: cddbd v1.5.2PL0 Copyright (c) Steve Scherf et al.
# Submitted via: ExactAudioCopyFreeDBPlugin 1.0
#
DISCID=a70e280d
DTITLE=龚玥 - DTSES十亿掌声
DYEAR=2010
DGENRE=DTSES
TTITLE0=我要去西藏
TTITLE1=高原蓝
TTITLE2=花楼恋歌
TTITLE3=走天涯
TTITLE4=望月
TTITLE5=爱情海
TTITLE6=朝云暮雨
TTITLE7=献给妈妈的歌
TTITLE8=月下情歌
TTITLE9=月牙泉
TTITLE10=康美之恋
TTITLE11=有一个美丽的地方
TTITLE12=爱在天地间
EXTD=
EXTT0=
EXTT1=
EXTT2=
EXTT3=
EXTT4=
EXTT5=
EXTT6=
EXTT7=
EXTT8=
EXTT9=
EXTT10=
EXTT11=
EXTT12=
PLAYORDER=
